<?xml version="1.0" encoding="UTF-8"?>
<svg id="_레이어_1" data-name="레이어 1" xmlns="http://www.w3.org/2000/svg" xmlns:xlink="http://www.w3.org/1999/xlink" viewBox="0 0 651.33 198">
  <defs>
    <style>
      .cls-1 {
        fill: #0d3a5c;
      }

      .cls-2 {
        fill: url(#_무제_그라디언트_43);
      }

      .cls-3 {
        fill: url(#_새_그라디언트_견본_1);
      }

      .cls-4 {
        fill: url(#_무제_그라디언트_42);
      }

      .cls-5 {
        fill: url(#_무제_그라디언트_30);
      }

      .cls-6 {
        fill: url(#_무제_그라디언트_36);
      }

      .cls-7 {
        fill: url(#_무제_그라디언트_41);
      }

      .cls-8 {
        fill: #55b9ea;
      }
    </style>
    <radialGradient id="_무제_그라디언트_43" data-name="무제 그라디언트 43" cx="119.1" cy="99" fx="119.1" fy="99" r="106.53" gradientUnits="userSpaceOnUse">
      <stop offset="0" stop-color="#fff"/>
      <stop offset=".39" stop-color="#fdfefe"/>
      <stop offset=".53" stop-color="#f6fcfe"/>
      <stop offset=".62" stop-color="#eaf8fd"/>
      <stop offset=".71" stop-color="#d9f3fb"/>
      <stop offset=".77" stop-color="#c3ecf9"/>
      <stop offset=".83" stop-color="#a8e3f7"/>
      <stop offset=".89" stop-color="#88d9f4"/>
      <stop offset=".94" stop-color="#62cdf1"/>
      <stop offset=".99" stop-color="#39c0ee"/>
      <stop offset="1" stop-color="#2abced"/>
    </radialGradient>
    <linearGradient id="_무제_그라디언트_36" data-name="무제 그라디언트 36" x1="9" y1="99" x2="229.2" y2="99" gradientUnits="userSpaceOnUse">
      <stop offset="0" stop-color="#fff"/>
      <stop offset="1" stop-color="#2abced"/>
    </linearGradient>
    <radialGradient id="_무제_그라디언트_41" data-name="무제 그라디언트 41" cx="330.01" cy="99" fx="330.01" fy="99" r="104.92" gradientUnits="userSpaceOnUse">
      <stop offset="0" stop-color="#fff"/>
      <stop offset=".39" stop-color="#fdfefe"/>
      <stop offset=".53" stop-color="#f6fcfe"/>
      <stop offset=".62" stop-color="#eaf8fd"/>
      <stop offset=".71" stop-color="#d9f3fb"/>
      <stop offset=".77" stop-color="#c3ecf9"/>
      <stop offset=".83" stop-color="#a8e3f7"/>
      <stop offset=".89" stop-color="#88d9f4"/>
      <stop offset=".94" stop-color="#62cdf1"/>
      <stop offset=".99" stop-color="#39c0ee"/>
      <stop offset="1" stop-color="#2abced"/>
    </radialGradient>
    <linearGradient id="_새_그라디언트_견본_1" data-name="새 그라디언트 견본 1" x1="222.86" y1="99" x2="437.14" y2="99" gradientUnits="userSpaceOnUse">
      <stop offset="0" stop-color="#fff"/>
      <stop offset="1" stop-color="#2abced"/>
    </linearGradient>
    <radialGradient id="_무제_그라디언트_42" data-name="무제 그라디언트 42" cx="532.22" cy="99" fx="532.22" fy="99" r="106.53" gradientUnits="userSpaceOnUse">
      <stop offset="0" stop-color="#fff"/>
      <stop offset=".39" stop-color="#fdfefe"/>
      <stop offset=".53" stop-color="#f6fcfe"/>
      <stop offset=".62" stop-color="#eaf8fd"/>
      <stop offset=".71" stop-color="#d9f3fb"/>
      <stop offset=".77" stop-color="#c3ecf9"/>
      <stop offset=".83" stop-color="#a8e3f7"/>
      <stop offset=".89" stop-color="#88d9f4"/>
      <stop offset=".94" stop-color="#62cdf1"/>
      <stop offset=".99" stop-color="#39c0ee"/>
      <stop offset="1" stop-color="#2abced"/>
    </radialGradient>
    <linearGradient id="_무제_그라디언트_30" data-name="무제 그라디언트 30" x1="422.12" y1="99" x2="642.32" y2="99" gradientUnits="userSpaceOnUse">
      <stop offset="0" stop-color="#fff"/>
      <stop offset="1" stop-color="#2abced"/>
    </linearGradient>
  </defs>
  <path class="cls-1" d="M9,198c-2.72,0-5.27-1.21-6.99-3.33-1.72-2.11-2.38-4.85-1.82-7.52l10-47.8c.73-3.48,3.46-6.17,6.83-6.93-1.58-2.08-2.17-4.72-1.62-7.29L40.4,7.14c.88-4.13,4.58-7.14,8.81-7.14h180c2.73,0,5.27,1.21,6.99,3.33,1.72,2.12,2.38,4.87,1.81,7.53l-25,118c-.51,2.4-1.97,4.42-3.93,5.69.33.3.63.62.92.97,1.71,2.11,2.38,4.85,1.82,7.51l-10,47.8c-.87,4.15-4.57,7.16-8.81,7.16H9Z"/>
  <path class="cls-2" d="M9,195c-1.81,0-3.51-.81-4.66-2.22-1.15-1.41-1.59-3.24-1.22-5.01l10-47.8c.58-2.76,3.05-4.77,5.87-4.77h60.13l.46-2.2H24.2c-1.82,0-3.52-.81-4.66-2.22-1.15-1.41-1.58-3.24-1.21-5.02L43.33,7.76c.58-2.76,3.05-4.76,5.87-4.76h180c1.82,0,3.52.81,4.66,2.22,1.15,1.41,1.58,3.24,1.21,5.02l-25,118c-.58,2.76-3.05,4.76-5.87,4.76h-58.33l-.46,2.2h57.6c1.82,0,3.51.81,4.66,2.22,1.14,1.41,1.59,3.23,1.22,5.01l-10,47.8c-.58,2.76-3.05,4.77-5.87,4.77H9ZM154.53,68.2l.08-.4h-55.74l-.08.4h55.74Z"/>
  <path class="cls-8" d="M9,192c-.9,0-1.76-.41-2.33-1.11-.57-.7-.79-1.62-.61-2.51l10-47.8c.29-1.39,1.52-2.39,2.94-2.39h62.57l1.73-8.2H24.2c-.9,0-1.76-.41-2.33-1.11-.57-.7-.79-1.63-.6-2.51L46.27,8.38c.29-1.39,1.52-2.38,2.94-2.38h180c.9,0,1.76.41,2.33,1.11.57.7.79,1.63.6,2.51l-25,118c-.29,1.39-1.52,2.38-2.93,2.38h-60.77l-1.73,8.2h61.3c.9,0,1.76.41,2.33,1.11.57.7.79,1.62.61,2.51l-10,47.8c-.29,1.39-1.52,2.39-2.94,2.39H9ZM156.97,71.2l1.34-6.4h-61.87l-1.34,6.4h61.87Z"/>
  <path class="cls-6" d="M49.2,9h180l-25,118h-63.2l-3,14.2h65l-10,47.8H9l10-47.8h65l3-14.2H24.2L49.2,9ZM91.4,74.2h68l2.6-12.4h-68l-2.6,12.4Z"/>
  <path class="cls-1" d="M251.14,198c-13.29,0-23.43-3.81-30.12-11.31-6.94-7.78-8.85-19.09-5.67-33.61,2.6-12.55,7.88-22.37,15.71-29.2-2.15-.36-4.1-1.48-5.5-3.21-1.72-2.12-2.38-4.86-1.82-7.53l6.8-32.2c.44-2.07,1.62-3.93,3.27-5.23.03-.26.08-.53.13-.79l14.4-67.8c.88-4.13,4.58-7.13,8.8-7.13h180c2.73,0,5.28,1.22,6.99,3.34,1.71,2.12,2.38,4.86,1.81,7.53l-14.4,67.8c-.02.1-.04.19-.07.29.83,1.76,1.08,3.77.67,5.7l-6.8,32.2c-.88,4.14-4.58,7.14-8.81,7.14h-4.79c6.37,7.72,8.12,18.76,5.21,32.82-3,13.75-9.03,24.18-17.93,31.01-8.78,6.74-19.64,10.16-32.28,10.16h-115.6Z"/>
  <path class="cls-7" d="M251.14,195c-12.4,0-21.78-3.47-27.88-10.31-6.26-7.02-7.94-17.44-4.98-30.97,2.68-12.95,8.31-22.78,16.73-29.19,1.72-1.31,3.52-2.48,5.41-3.53h-7.88c-1.82,0-3.52-.81-4.66-2.22-1.14-1.41-1.58-3.24-1.21-5.02l6.8-32.2c.39-1.87,1.65-3.39,3.3-4.17-.06-.6-.03-1.22.1-1.83l14.4-67.8c.58-2.75,3.05-4.75,5.87-4.75h180c1.82,0,3.52.81,4.66,2.22,1.14,1.41,1.58,3.24,1.21,5.02l-14.4,67.8c-.09.43-.23.85-.41,1.24.99,1.37,1.36,3.09,1.01,4.76l-6.8,32.2c-.58,2.76-3.05,4.76-5.87,4.76h-12.49c1.82,1.25,3.45,2.7,4.89,4.34,6.16,7,7.86,17.39,5.07,30.88-2.84,13.02-8.5,22.85-16.82,29.24-8.24,6.33-18.49,9.54-30.46,9.54h-115.6Z"/>
  <path class="cls-8" d="M251.14,192c-11.51,0-20.13-3.13-25.64-9.3-5.59-6.27-7.03-15.8-4.29-28.34,2.53-12.24,7.79-21.49,15.61-27.45,7.77-5.91,17.43-8.91,28.72-8.91h-33c-.9,0-1.76-.41-2.33-1.11-.57-.7-.79-1.62-.61-2.51l6.8-32.2c.29-1.39,1.52-2.38,2.94-2.38h3.4c-.91,0-1.76-.41-2.33-1.11-.57-.7-.79-1.63-.6-2.51l14.4-67.8c.29-1.39,1.52-2.38,2.93-2.38h180c.91,0,1.76.41,2.33,1.11s.79,1.63.6,2.51l-14.4,67.8c-.29,1.39-1.52,2.38-2.93,2.38h-60.62,61.22c.9,0,1.76.41,2.33,1.11.57.7.79,1.62.61,2.51l-6.8,32.2c-.29,1.39-1.52,2.38-2.94,2.38h-35.4c11.51,0,20.11,3.13,25.55,9.32,5.5,6.26,6.98,15.77,4.39,28.29-2.68,12.29-7.97,21.52-15.71,27.47-7.71,5.92-17.34,8.92-28.63,8.92h-115.6ZM281.75,155h0Z"/>
  <path class="cls-3" d="M381.14,121c10.67,0,18.43,2.77,23.3,8.3,4.87,5.53,6.1,14.1,3.7,25.7-2.53,11.6-7.4,20.17-14.6,25.7-7.2,5.53-16.13,8.3-26.8,8.3h-115.6c-10.67,0-18.47-2.77-23.4-8.3-4.93-5.53-6.13-14.1-3.6-25.7,2.4-11.6,7.23-20.17,14.5-25.7,7.27-5.53,16.23-8.3,26.9-8.3h115.6ZM257.14,9h180l-14.4,67.8h-63l-1.4,6h65l-6.8,32.2h-184l6.8-32.2h65l1.4-6h-63l14.4-67.8ZM350.55,158c.8,0,1.53-.2,2.2-.6.67-.4,1.13-1.2,1.4-2.4.27-1.2.13-2-.4-2.4-.54-.4-1.2-.6-2-.6h-70c-.8,0-1.54.2-2.2.6-.67.4-1.13,1.2-1.4,2.4-.27,1.2-.13,2,.4,2.4.53.4,1.2.6,2,.6h70ZM303.35,45.8h72l1.2-6h-72l-1.2,6Z"/>
  <path class="cls-1" d="M550.12,198c-2.73,0-5.28-1.22-6.99-3.34-1.71-2.12-2.38-4.86-1.81-7.53l9.72-45.8c-7.66,10.79-16.72,20.08-27.08,27.71-26.07,19.21-60.33,28.96-101.84,28.96-2.72,0-5.27-1.21-6.99-3.33-1.72-2.12-2.38-4.86-1.82-7.53l10.4-49.4c.83-3.95,4.23-6.88,8.26-7.13,10.31-.63,19.6-1.99,27.62-4.04,7.49-1.92,14.06-4.85,19.53-8.72,5.32-3.77,9.81-8.72,13.35-14.72,3.68-6.25,6.59-14.33,8.65-24.01l2.86-13.33h-51.86c-2.73,0-5.28-1.22-7-3.34-1.72-2.12-2.38-4.87-1.8-7.54l10.2-47.8c.88-4.13,4.58-7.12,8.8-7.12h120c1.03,0,2.05.18,3.01.52.96-.34,1.97-.52,2.99-.52h54c2.73,0,5.28,1.22,6.99,3.34,1.71,2.12,2.38,4.86,1.81,7.53l-11.71,55.2c2.31.28,4.42,1.44,5.9,3.28,1.72,2.12,2.37,4.87,1.8,7.54l-9.4,43.8c-.88,4.12-4.59,7.11-8.8,7.11h-2.7l-13.29,63.06c-.88,4.14-4.58,7.14-8.81,7.14h-54Z"/>
  <path class="cls-4" d="M550.12,195c-1.82,0-3.52-.81-4.66-2.22-1.14-1.41-1.58-3.24-1.21-5.02l13.32-62.77c-9,16.98-20.83,30.92-35.39,41.65-25.54,18.83-59.21,28.37-100.06,28.37-1.82,0-3.51-.81-4.66-2.22-1.15-1.41-1.59-3.24-1.21-5.02l10.4-49.4c.55-2.63,2.82-4.59,5.51-4.75,10.5-.64,19.98-2.03,28.18-4.12,7.85-2.01,14.75-5.1,20.52-9.18,5.67-4.02,10.45-9.28,14.2-15.65,3.85-6.53,6.88-14.91,9-24.9l3.64-16.95h-55.57c-1.82,0-3.52-.81-4.66-2.23-1.15-1.42-1.58-3.25-1.2-5.03l10.2-47.8c.58-2.75,3.05-4.75,5.87-4.75h120c1.08,0,2.11.28,3.01.81.89-.51,1.91-.81,2.99-.81h54c1.82,0,3.52.81,4.66,2.22,1.14,1.41,1.58,3.24,1.21,5.02l-12.46,58.76h2.59c1.82,0,3.52.81,4.67,2.23,1.14,1.41,1.58,3.25,1.2,5.03l-9.4,43.8c-.59,2.75-3.06,4.74-5.87,4.74h-5.13l-13.8,65.44c-.58,2.76-3.05,4.76-5.87,4.76h-54Z"/>
  <path class="cls-8" d="M550.12,192c-.91,0-1.76-.41-2.33-1.11s-.79-1.63-.6-2.51l21.63-101.94c-8.47,34.19-24.74,60.33-48.42,77.78-25.01,18.44-58.08,27.79-98.28,27.79-.9,0-1.76-.41-2.33-1.11-.57-.7-.79-1.62-.61-2.51l10.4-49.4c.28-1.32,1.41-2.29,2.75-2.38,10.69-.65,20.36-2.07,28.74-4.21,8.21-2.1,15.44-5.34,21.51-9.64,6.02-4.26,11.08-9.84,15.05-16.57,4.01-6.81,7.16-15.49,9.35-25.8l4.42-20.58h-59.29c-.91,0-1.76-.41-2.33-1.11-.57-.7-.79-1.63-.6-2.51l10.2-47.8c.29-1.38,1.52-2.37,2.93-2.37h120c.91,0,1.76.41,2.33,1.11.38.47.61,1.04.66,1.63l.08-.36c.29-1.39,1.52-2.38,2.93-2.38h54c.91,0,1.76.41,2.33,1.11s.79,1.63.6,2.51l-13.23,62.38h6.3c.91,0,1.76.41,2.33,1.11.57.7.79,1.63.6,2.52l-9.4,43.8c-.3,1.38-1.52,2.37-2.93,2.37h-7.57l-14.3,67.82c-.29,1.39-1.52,2.38-2.94,2.38h-54Z"/>
  <path class="cls-5" d="M432.52,139.6c10.93-.67,20.7-2.1,29.3-4.3,8.6-2.2,16.1-5.56,22.5-10.1,6.4-4.53,11.7-10.37,15.9-17.5,4.2-7.13,7.43-16.03,9.7-26.7l5.2-24.2h-63l10.2-47.8h120l-15,70.6c-7.87,36.67-24.1,64.07-48.7,82.2-24.6,18.13-56.77,27.2-96.5,27.2l10.4-49.4ZM588.32,9h54l-14,66h10l-9.4,43.8h-10l-14.8,70.2h-54l38.2-180Z"/>
</svg>